# xmcd CD database file
#
# Track frame offsets:
#	150
#	16415
#	41731
#	62939
#	89591
#	106103
#	124912
#	145070
#	172507
#	186324
#	208875
#	232665
#	284897
#
# Disc length: 4168 seconds
#
# Revision: 0
# Processed by: cddbd v1.5.2PL0 Copyright (c) Steve Scherf et al.
# Submitted via: CDex 1.70beta2
#
DISCID=bb10460d
DTITLE=MAGGIE BELL AND MIDNIGHT FLYER - Live Montreux July 1981
DYEAR=1981
DGENRE=Blues
TTITLE0=Hey Boy
TTITLE1=Danger Money
TTITLE2=Love Games
TTITLE3=Sweet Lovin' Woman
TTITLE4=Poor Little Jimmy
TTITLE5=Rough Trade
TTITLE6=French Kisses
TTITLE7=Too Much Love
TTITLE8=Penicillin Blues
TTITLE9=Bring It On Home To Me (with TAJ MAHAL)
TTITLE10=Chain Gang (with TAJ MAHAL)
TTITLE11=Blues Jam (with ALBERT COLLINS)
TTITLE12=Stormy Monday Blues (with ALBERT COLLINS)
EXTD=YEAR: 1981
EXTT0=
EXTT1=
EXTT2=
EXTT3=
EXTT4=
EXTT5=
EXTT6=
EXTT7=
EXTT8=
EXTT9=
EXTT10=
EXTT11=
EXTT12=
PLAYORDER=
